<?xml version="1.0" encoding="UTF-8"?>
<!-- Generated by jsxcad -->
<!DOCTYPE svg PUBLIC "-//W3C//DTD SVG 1.1 Tiny//EN" "http://www.w3.org/Graphics/SVG/1.1/DTD/svg11-tiny.dtd">
<svg viewBox="-250 -250 500 500" width="500" height="500" xmlns="http://www.w3.org/2000/svg"><path d="M-15.5419372353696,79.44721097266341L-1.0825583428722123,96.69275611056268L-58.579291718403326,-4.445375665537952z" style="fill:rgb(23,55,145)"/><path d="M-1.0825583428722123,96.69275611056268L23.302193718034527,105.57468862117798L-32.73174448497149,3.29287393905026z" style="fill:rgb(57,36,182)"/><path d="M72.02663258040918,-54.62507032709822L107.56078704455327,71.3181656159333L120.91597917492733,46.878158631511326z" style="fill:rgb(231,109,199)"/><path d="M-15.5419372353696,79.44721097266341L-58.579291718403326,-4.445375665537952L-69.55066183173204,-16.943787915501915z" style="fill:rgb(23,55,145)"/><path d="M23.302193718034527,105.57468862117798L53.4413151748658,103.92777761198748L2.7626795538237203e-17,0.10413249425226043z" style="fill:rgb(102,32,209)"/><path d="M83.53485121900455,91.72257422552168L107.56078704455327,71.3181656159333L60.3259147828755,-35.63268266614469z" style="fill:rgb(197,72,218)"/><path d="M53.4413151748658,103.92777761198748L83.53485121900455,91.72257422552168L33.269980627230275,-13.77980250648923z" style="fill:rgb(152,45,222)"/><path d="M-32.73174448497149,3.29287393905026L-58.579291718403326,-4.445375665537952L-1.0825583428722123,96.69275611056268z" style="fill:rgb(57,36,182)"/><path d="M19.97500562256756,-194.97116073771244L120.91597917492733,46.878158631511326L121.52463724524543,23.182978492872447z" style="fill:rgb(246,148,167)"/><path d="M-69.55066183173204,-16.943787915501915L-144.24615336989712,-145.0358977119481L-15.5419372353696,79.44721097266341z" style="fill:rgb(23,55,145)"/><path d="M72.02663258040918,-54.62507032709822L60.3259147828755,-35.63268266614469L107.56078704455327,71.3181656159333z" style="fill:rgb(231,109,199)"/><path d="M2.7626795538237203e-17,0.10413249425226043L-32.73174448497149,3.29287393905026L23.302193718034527,105.57468862117798z" style="fill:rgb(102,32,209)"/><path d="M72.02663258040918,-54.62507032709822L-69.55066183173204,-16.943787915501915L-58.579291718403326,-4.445375665537952z" style="fill:rgb(83,212,212)"/><path d="M60.3259147828755,-35.63268266614469L33.269980627230275,-13.77980250648923L83.53485121900455,91.72257422552168z" style="fill:rgb(197,72,218)"/><path d="M33.269980627230275,-13.77980250648923L2.7626795538237203e-17,0.10413249425226043L53.4413151748658,103.92777761198748z" style="fill:rgb(152,45,222)"/><path d="M72.02663258040918,-54.62507032709822L-58.579291718403326,-4.445375665537952L-32.73174448497149,3.29287393905026z" style="fill:rgb(83,212,212)"/><path d="M120.91597917492733,46.878158631511326L15.344645992115725,-188.52254988711738L72.02663258040918,-54.62507032709822z" style="fill:rgb(231,109,199)"/><path d="M72.02663258040918,-54.62507032709822L-32.73174448497149,3.29287393905026L2.7626795538237203e-17,0.10413249425226043zM72.02663258040918,-54.62507032709822L33.269980627230275,-13.77980250648923L60.3259147828755,-35.63268266614469zM72.02663258040918,-54.62507032709822L2.7626795538237203e-17,0.10413249425226043L33.269980627230275,-13.77980250648923zM-75.55497210424652,-229.9256049156996L-106.4673759598126,-212.243637599546L-130.61593435319588,-190.01071560745496zM1.001385981963438e-14,0.10413249425225786L-33.06424054946296,13.902209859584401L-60.87410552941827,36.16569351971151zM-11.61420111896895,-242.42737791541109L-42.33512457777447,-240.56229300055463L-75.55497210424652,-229.9256049156996z" style="fill:rgb(83,212,212)"/><path d="M121.52463724524543,23.182978492872447L23.266255984054155,-218.20124677694176L19.97500562256756,-194.97116073771244z" style="fill:rgb(246,148,167)"/><path d="M-69.55066183173204,-16.943787915501915L72.02663258040918,-54.62507032709822L15.344645992115725,-188.52254988711738z" style="fill:rgb(127,37,217)"/><path d="M-75.55497210424652,-229.9256049156996L-130.61593435319588,-190.01071560745496L-144.24615336989712,-145.0358977119481zM62.76246084217438,4.978522732744697L33.61355902603166,-3.1705157244726565L1.001385981963438e-14,0.10413249425225786zM1.001385981963438e-14,0.10413249425225786L-60.87410552941827,36.16569351971151L77.40790757349913,19.0779828163572z" style="fill:rgb(83,212,212)"/><path d="M-69.55066183173204,-16.943787915501915L-140.68485951071696,-141.2717650538505L-144.24615336989712,-145.0358977119481z" style="fill:rgb(23,55,145)"/><path d="M23.266255984054155,-218.20124677694176L-11.61420111896895,-242.42737791541109L-75.55497210424652,-229.9256049156996zM-60.87410552941827,36.16569351971151L-74.55547111588615,56.75486506303412L77.40790757349913,19.0779828163572z" style="fill:rgb(83,212,212)"/><path d="M120.91597917492733,46.878158631511326L19.97500562256756,-194.97116073771244L15.344645992115725,-188.52254988711738z" style="fill:rgb(231,109,199)"/><path d="M-130.61593435319588,-190.01071560745496L-144.14623908385963,-166.3811659184223L-144.24615336989712,-145.0358977119481zM77.40790757349913,19.0779828163572L62.76246084217438,4.978522732744697L1.001385981963438e-14,0.10413249425225786z" style="fill:rgb(83,212,212)"/><path d="M15.344645992115725,-188.52254988711738L-140.68485951071696,-141.2717650538505L-69.55066183173204,-16.943787915501915z" style="fill:rgb(127,37,217)"/><path d="M-144.24615336989712,-145.0358977119481L23.266255984054155,-218.20124677694176L-75.55497210424652,-229.9256049156996zM23.266255984054155,-218.20124677694176L11.726587533656598,-234.77745777296857L-11.61420111896895,-242.42737791541109z" style="fill:rgb(83,212,212)"/><path d="M-158.83485529218703,-6.1335144306829505L-10.829151409709059,217.01022704705022L11.249081158308979,235.01108959779535z" style="fill:rgb(38,44,164)"/><path d="M27.032875303479535,-84.97786780676556L136.9501725251798,158.27815413665815L130.28705682472358,131.19856323810632z" style="fill:rgb(246,167,148)"/><path d="M-144.24615336989712,-145.0358977119481L-140.68485951071696,-141.2717650538505L15.344645992115725,-188.52254988711738zM-144.24615336989712,-145.0358977119481L15.344645992115725,-188.52254988711738L23.266255984054155,-218.20124677694176z" style="fill:rgb(83,212,212)"/><path d="M-135.03932919620635,10.195603693027822L11.249081158308979,235.01108959779535L42.47528215478017,241.56732482039342z" style="fill:rgb(78,32,197)"/><path d="M14.372932614489455,-52.810463821692245L129.34636492901848,188.3710896825936L136.9501725251798,158.27815413665815z" style="fill:rgb(241,128,184)"/><path d="M15.344645992115725,-188.52254988711738L19.97500562256756,-194.97116073771244L23.266255984054155,-218.20124677694176z" style="fill:rgb(83,212,212)"/><path d="M-98.22980179353728,13.521244140203944L42.47528215478017,241.56732482039342L77.08629459225823,234.79603441829164z" style="fill:rgb(127,37,217)"/><path d="M-14.826819213835327,-21.500967502095392L108.12403945661482,215.75609597283474L129.34636492901848,188.3710896825936z" style="fill:rgb(216,90,210)"/><path d="M-55.178867979266705,2.3120451264663133L77.08629459225823,234.79603441829164L108.12403945661482,215.75609597283474z" style="fill:rgb(176,57,222)"/><path d="M130.28705682472358,131.19856323810632L21.936458606163896,-111.88359016662163L27.032875303479535,-84.97786780676556z" style="fill:rgb(246,167,148)"/><path d="M11.249081158308979,235.01108959779535L-135.03932919620635,10.195603693027822L-158.83485529218703,-6.1335144306829505z" style="fill:rgb(38,44,164)"/><path d="M-152.09396800214918,-68.2971144393935L-157.78475625675222,-60.931872536460126L-166.3743770898643,-31.492165293697465z" style="fill:rgb(83,212,212)"/><path d="M136.9501725251798,158.27815413665815L27.032875303479535,-84.97786780676556L14.372932614489455,-52.810463821692245z" style="fill:rgb(241,128,184)"/><path d="M42.47528215478017,241.56732482039342L-98.22980179353728,13.521244140203944L-135.03932919620635,10.195603693027822z" style="fill:rgb(78,32,197)"/><path d="M21.936458606163896,-111.88359016662163L16.64296728833989,-116.38395896978648L-152.09396800214918,-68.2971144393935z" style="fill:rgb(83,212,212)"/><path d="M129.34636492901848,188.3710896825936L14.372932614489455,-52.810463821692245L-14.826819213835327,-21.500967502095392z" style="fill:rgb(216,90,210)"/><path d="M-152.09396800214918,-68.2971144393935L-166.3743770898643,-31.492165293697465L-135.03932919620635,10.195603693027822z" style="fill:rgb(83,212,212)"/><path d="M77.08629459225823,234.79603441829164L-55.178867979266705,2.3120451264663133L-98.22980179353728,13.521244140203944z" style="fill:rgb(127,37,217)"/><path d="M108.12403945661482,215.75609597283474L-14.826819213835327,-21.500967502095392L-55.178867979266705,2.3120451264663133z" style="fill:rgb(176,57,222)"/><path d="M14.372932614489455,-52.810463821692245L21.936458606163896,-111.88359016662163L-152.09396800214918,-68.2971144393935zM-166.3743770898643,-31.492165293697465L-158.83485529218703,-6.1335144306829505L-135.03932919620635,10.195603693027822zM-135.03932919620635,10.195603693027822L14.372932614489455,-52.810463821692245L-152.09396800214918,-68.2971144393935zM14.372932614489455,-52.810463821692245L27.032875303479535,-84.97786780676556L21.936458606163896,-111.88359016662163zM-135.03932919620635,10.195603693027822L-55.178867979266705,2.3120451264663133L14.372932614489455,-52.810463821692245zM-135.03932919620635,10.195603693027822L-98.22980179353728,13.521244140203944L-55.178867979266705,2.3120451264663133zM-55.178867979266705,2.3120451264663133L-14.826819213835327,-21.500967502095392L14.372932614489455,-52.810463821692245z" style="fill:rgb(83,212,212)"/></svg>
